<?xml version="1.0" encoding="utf-8"?>
<!-- Generator: Adobe Illustrator 21.1.0, SVG Export Plug-In . SVG Version: 6.00 Build 0)  -->
<svg version="1.1" id="Capa_1" xmlns="http://www.w3.org/2000/svg" xmlns:xlink="http://www.w3.org/1999/xlink" x="0px" y="0px"
	 viewBox="0 0 853.9 158" style="enable-background:new 0 0 853.9 158;" xml:space="preserve">
<style type="text/css">
	.st0{fill:#FFFFFF;}
</style>
<g>
	<path class="st0" d="M92.5,158L58.4,91.9c-12-23.4-23.1-46-33.5-67.9h-0.4c0.9,24,1.3,47.9,1.3,71.9V158H0V0h38.4l34,66.1
		c12,23.4,23.2,46,33.5,67.9h0.4c-0.7-26.6-1.1-50.6-1.1-71.9V0h25.5v158H92.5z"/>
	<path class="st0" d="M189,23.1v42.9h74.1v22.8H189v46.2h81.2V158H162.4V0H268v23.1H189z"/>
	<path class="st0" d="M628.2,23.1v42.9h74.1v22.8h-74.1v46.2h81.2V158H601.5V0h105.6v23.1H628.2z"/>
	<path class="st0" d="M829.5,11.3c9.3,7.6,14,18.4,14,32.4c0,9.9-2.6,18.3-7.9,25.3c-5.3,7-12.4,11.5-21.4,13.8v0.5
		c5.6,1.9,10.1,4.9,13.3,9.1c3.2,4.1,6.6,11.2,10.2,21.1l16.2,44.6h-29.1l-13.3-39.7c-3.1-9-6.8-15.2-11-18.6
		c-4.2-3.4-10.3-5.1-18.3-5.1h-22.9V158h-26.6V0h54.4C806,0,820.1,3.8,829.5,11.3z M759.3,72.8h26.4c10.5,0,18.3-2.3,23.3-6.8
		c5-4.6,7.5-10.9,7.5-18.9c0-16.7-10.8-25.1-32.4-25.1h-24.9V72.8z"/>
	<path class="st0" d="M369.8,92.3c2.2-9.3,4.3-18.5,6.3-27.3l-10.6,45.3L369.8,92.3z"/>
	<path class="st0" d="M557.3,0l-13.1,60.8c-6.1,29.4-10.6,53.2-13.7,71.2H530c-5.5-26-10.8-49.9-16-71.4L499.4,0h-35.1l-14.6,60.6
		c-5.2,21.6-10.5,45.4-16,71.4h-0.4c-5.5-26-10.8-49.9-15.9-71.4L402.7,0h-35.1L353,60.6c-5.2,21.6-10.5,45.4-16,71.4h-0.4
		c-3.6-20.9-8.2-44.6-14-71.2L309.7,0h-26.2l34.8,158h35.7l11.5-47.7L376.1,65c3.3-14.7,6.2-28.7,8.8-42.1h0.4
		c0.1,0.5,0.2,1,0.3,1.5c4.1,21,9,43.7,14.8,68l15.7,65.7h34.6l11.4-47.7L472.9,65c3.3-14.7,6.2-28.7,8.8-42.1h0.4
		c0.1,0.5,0.2,1,0.3,1.5c4.1,21,9,43.7,14.8,68l15.8,65.7h35.7L583.5,0H557.3z"/>
</g>
</svg>
