<svg xmlns="http://www.w3.org/2000/svg" viewBox="0 0 986.38 321.08"><defs><style>.cls-1{fill:none;}</style></defs><title>Asset 4</title><g id="Layer_2" data-name="Layer 2"><g id="Layer_1-2" data-name="Layer 1"><rect class="cls-1" width="986.38" height="321.08"/><path d="M273.58,214.87,251.3,171.8q-11.7-22.86-21.83-44.25h-.28q.87,23.43.87,46.83v40.49H213.28V111.94h25L260.41,155q11.73,22.82,21.83,44.23h.28q-.72-26-.72-46.85V111.94h16.63V214.87Z"/><path d="M336.43,127v27.92h48.29v14.87H336.43v30.07h52.91v15H319.09V111.94h68.8v15Z"/><path d="M622.57,127v27.92h48.29v14.87H622.57v30.07h52.92v15H605.22V111.94H674v15Z"/><path d="M753.72,119.31q9.11,7.38,9.11,21.11a26.5,26.5,0,0,1-5.13,16.48,24.09,24.09,0,0,1-13.95,9v.29a18.21,18.21,0,0,1,8.68,5.92q3.15,4.05,6.63,13.73l10.56,29.06H750.68L742,189q-3.06-8.83-7.15-12.15t-11.94-3.32H708v41.34H690.69V111.94h35.42Q744.63,111.94,753.72,119.31Zm-45.69,40h17.21c6.83,0,11.91-1.48,15.18-4.46s4.91-7.09,4.91-12.31q0-16.34-21.11-16.34H708Z"/><path d="M454.25,172.08c1.45-6.08,2.82-12,4.09-17.79l-6.9,29.48Z"/><path d="M576.42,111.94l-8.54,39.61q-5.93,28.78-9,46.4h-.29q-5.36-25.44-10.41-46.55l-9.54-39.47H515.83l-9.54,39.47Q501.24,172.5,495.88,198h-.29q-5.33-25.44-10.39-46.55l-9.55-39.47H452.81l-9.54,39.47Q438.2,172.5,432.86,198h-.28q-3.47-20.39-9.11-46.4l-8.38-39.61H398l22.69,102.93H444l7.47-31.11,6.9-29.48q3.22-14.39,5.75-27.45h.29c.05.31.12.65.18,1q4,20.55,9.64,44.28l10.26,42.79H507l7.45-31.11,6.91-29.48q3.2-14.39,5.73-27.45h.29c.05.31.12.65.19,1q4,20.55,9.63,44.28l10.27,42.79h23.29l22.69-102.93Z"/></g></g></svg>