<svg xmlns="http://www.w3.org/2000/svg" viewBox="0 0 1133.55 320.2"><defs><style>.cls-1{font-size:63.62px;fill:#231f20;font-family:NeueHaasUnicaPro-Regular, Neue Haas Unica Pro;}.cls-2{letter-spacing:-0.03em;}.cls-3{letter-spacing:-0.02em;}.cls-4{letter-spacing:-0.02em;}.cls-5{letter-spacing:-0.02em;}.cls-6{letter-spacing:0em;}.cls-7{letter-spacing:-0.02em;}.cls-8{letter-spacing:-0.02em;}.cls-9{letter-spacing:-0.03em;}.cls-10{letter-spacing:-0.02em;}.cls-11{letter-spacing:-0.03em;}.cls-12{letter-spacing:-0.01em;}.cls-13{letter-spacing:-0.03em;}.cls-14{letter-spacing:-0.02em;}.cls-15{letter-spacing:-0.02em;}.cls-16{letter-spacing:-0.02em;}.cls-17{letter-spacing:-0.03em;}.cls-18{letter-spacing:-0.03em;}.cls-19{letter-spacing:-0.02em;}.cls-20{letter-spacing:-0.03em;}.cls-21{letter-spacing:-0.02em;}.cls-22{letter-spacing:-0.02em;}.cls-23{letter-spacing:-0.02em;}.cls-24{letter-spacing:-0.02em;}.cls-25{letter-spacing:-0.01em;}.cls-26{letter-spacing:-0.02em;}.cls-27{letter-spacing:-0.01em;}</style></defs><title>Asset 1</title><g id="Layer_2" data-name="Layer 2"><g id="Layer_1-2" data-name="Layer 1"><path d="M304.71,156q1.9,2.1,1.9,6.18v12.28h-3.49v-12q0-3-1.19-4.38a4.39,4.39,0,0,0-3.44-1.33,4.86,4.86,0,0,0-3.74,1.62,6.5,6.5,0,0,0-1.49,4.55v11.52h-3.48V154.36h3.37V157h.08a6.76,6.76,0,0,1,2.54-2.26,7.55,7.55,0,0,1,3.56-.83A6.9,6.9,0,0,1,304.71,156Zm-.87-6.14a3.6,3.6,0,0,1-2.81,1.19,4.22,4.22,0,0,1-1.6-.3,11.52,11.52,0,0,1-1.64-.85q-.87-.47-1.33-.67a2.4,2.4,0,0,0-1-.2q-1.62,0-1.82,2h-2.3a5.31,5.31,0,0,1,1.19-3.37,3.6,3.6,0,0,1,2.81-1.19,4.23,4.23,0,0,1,1.6.3,11.71,11.71,0,0,1,1.64.85q.87.47,1.33.67a2.4,2.4,0,0,0,1,.2q1.58,0,1.82-2H305A5.32,5.32,0,0,1,303.84,149.88Z"/><path d="M14.93,156q1.9,2.1,1.9,6.18v12.28H13.34v-12q0-3-1.19-4.38a4.39,4.39,0,0,0-3.44-1.33A4.86,4.86,0,0,0,5,158.4,6.5,6.5,0,0,0,3.48,163v11.52H0V154.36H3.37V157h.08A6.76,6.76,0,0,1,6,154.75a7.55,7.55,0,0,1,3.56-.83A6.9,6.9,0,0,1,14.93,156Zm-.87-6.14a3.6,3.6,0,0,1-2.81,1.19,4.22,4.22,0,0,1-1.6-.3A11.52,11.52,0,0,1,8,149.92q-.87-.47-1.33-.67a2.4,2.4,0,0,0-1-.2q-1.62,0-1.82,2H1.58a5.31,5.31,0,0,1,1.19-3.37,3.6,3.6,0,0,1,2.81-1.19,4.23,4.23,0,0,1,1.6.3,11.71,11.71,0,0,1,1.64.85q.87.47,1.33.67a2.4,2.4,0,0,0,1,.2q1.58,0,1.82-2h2.3A5.32,5.32,0,0,1,14.06,149.88Z"/><path d="M160.36,301.75q1.9,2.1,1.9,6.18V320.2h-3.49v-12q0-3-1.19-4.38a4.39,4.39,0,0,0-3.44-1.33,4.86,4.86,0,0,0-3.74,1.62,6.5,6.5,0,0,0-1.48,4.55V320.2h-3.48V300.08h3.37v2.65h.08a6.74,6.74,0,0,1,2.53-2.26,7.54,7.54,0,0,1,3.56-.83A6.89,6.89,0,0,1,160.36,301.75Zm-.87-6.14a3.61,3.61,0,0,1-2.81,1.19,4.21,4.21,0,0,1-1.6-.3,11.45,11.45,0,0,1-1.64-.85q-.87-.47-1.33-.67a2.4,2.4,0,0,0-1-.2q-1.62,0-1.82,2H147a5.31,5.31,0,0,1,1.19-3.37,3.6,3.6,0,0,1,2.81-1.19,4.21,4.21,0,0,1,1.6.3,11.63,11.63,0,0,1,1.64.85c.58.32,1,.54,1.33.67a2.4,2.4,0,0,0,1,.2q1.58,0,1.82-2h2.3A5.32,5.32,0,0,1,159.49,295.61Z"/><path d="M160.36,9.5q1.9,2.1,1.9,6.18V28h-3.49V16q0-3-1.19-4.38a4.39,4.39,0,0,0-3.44-1.33,4.86,4.86,0,0,0-3.74,1.62,6.5,6.5,0,0,0-1.48,4.55V28h-3.48V7.84h3.37v2.65h.08a6.77,6.77,0,0,1,2.53-2.26A7.56,7.56,0,0,1,155,7.41,6.89,6.89,0,0,1,160.36,9.5Zm-.87-6.14a3.6,3.6,0,0,1-2.81,1.19,4.21,4.21,0,0,1-1.6-.3,11.46,11.46,0,0,1-1.64-.85q-.87-.47-1.33-.67a2.4,2.4,0,0,0-1-.2q-1.62,0-1.82,2H147a5.31,5.31,0,0,1,1.19-3.37A3.6,3.6,0,0,1,151,0a4.25,4.25,0,0,1,1.6.3,11.68,11.68,0,0,1,1.64.85c.58.32,1,.54,1.33.67a2.4,2.4,0,0,0,1,.2q1.58,0,1.82-2h2.3A5.32,5.32,0,0,1,159.49,3.37Z"/><path d="M297.37,207.5q1.9,2.1,1.9,6.18V226h-3.49V214q0-3-1.19-4.38a4.39,4.39,0,0,0-3.44-1.33,4.86,4.86,0,0,0-3.74,1.62,6.5,6.5,0,0,0-1.48,4.55V226h-3.48V205.84h3.37v2.65h.08a6.75,6.75,0,0,1,2.53-2.26,7.55,7.55,0,0,1,3.56-.83A6.9,6.9,0,0,1,297.37,207.5Zm-.87-6.14a3.6,3.6,0,0,1-2.81,1.19,4.23,4.23,0,0,1-1.6-.3,11.63,11.63,0,0,1-1.64-.85q-.87-.47-1.33-.67a2.41,2.41,0,0,0-1-.2q-1.62,0-1.82,2H284a5.31,5.31,0,0,1,1.19-3.37A3.6,3.6,0,0,1,288,198a4.26,4.26,0,0,1,1.6.3,11.91,11.91,0,0,1,1.64.85q.87.47,1.33.67a2.4,2.4,0,0,0,1,.2q1.58,0,1.82-2h2.3A5.31,5.31,0,0,1,296.5,201.36Z"/><path d="M266.48,255q1.9,2.1,1.9,6.18v12.28H264.9v-12q0-3-1.19-4.38a4.38,4.38,0,0,0-3.44-1.33,4.85,4.85,0,0,0-3.74,1.62A6.5,6.5,0,0,0,255,262v11.52h-3.48V253.36h3.37V256H255a6.74,6.74,0,0,1,2.53-2.26,7.56,7.56,0,0,1,3.56-.83A6.9,6.9,0,0,1,266.48,255Zm-.87-6.14a3.6,3.6,0,0,1-2.81,1.19,4.21,4.21,0,0,1-1.6-.3,11.36,11.36,0,0,1-1.64-.85q-.87-.47-1.33-.67a2.41,2.41,0,0,0-1-.2q-1.62,0-1.82,2h-2.3a5.31,5.31,0,0,1,1.19-3.37,3.6,3.6,0,0,1,2.81-1.19,4.26,4.26,0,0,1,1.6.3,11.75,11.75,0,0,1,1.64.85q.87.47,1.33.67a2.42,2.42,0,0,0,1,.2q1.58,0,1.82-2h2.3A5.32,5.32,0,0,1,265.61,248.88Z"/><path d="M221.74,288.53q1.9,2.1,1.9,6.18V307h-3.49V295q0-3-1.19-4.38a4.39,4.39,0,0,0-3.44-1.33,4.86,4.86,0,0,0-3.74,1.62,6.5,6.5,0,0,0-1.48,4.55V307h-3.49V286.86h3.37v2.65h.08a6.76,6.76,0,0,1,2.53-2.26,7.55,7.55,0,0,1,3.56-.83A6.89,6.89,0,0,1,221.74,288.53Zm-.87-6.14a3.6,3.6,0,0,1-2.81,1.19,4.22,4.22,0,0,1-1.6-.3,11.53,11.53,0,0,1-1.64-.85c-.58-.32-1-.54-1.33-.67a2.42,2.42,0,0,0-1-.2q-1.62,0-1.82,2h-2.3a5.31,5.31,0,0,1,1.19-3.37,3.6,3.6,0,0,1,2.81-1.19,4.26,4.26,0,0,1,1.6.3,11.76,11.76,0,0,1,1.64.85c.58.32,1,.54,1.33.67a2.4,2.4,0,0,0,1,.2q1.58,0,1.82-2h2.3A5.31,5.31,0,0,1,220.87,282.39Z"/><path d="M108.48,291.69q1.9,2.1,1.9,6.18v12.28H106.9v-12q0-3-1.19-4.37a4.38,4.38,0,0,0-3.44-1.33,4.86,4.86,0,0,0-3.74,1.62A6.5,6.5,0,0,0,97,298.62v11.52H93.55V290h3.37v2.65H97a6.78,6.78,0,0,1,2.54-2.26,7.55,7.55,0,0,1,3.56-.83A6.89,6.89,0,0,1,108.48,291.69Zm-.87-6.14a3.6,3.6,0,0,1-2.81,1.19,4.23,4.23,0,0,1-1.6-.3,11.67,11.67,0,0,1-1.64-.85c-.58-.32-1-.54-1.33-.67a2.42,2.42,0,0,0-1-.2q-1.62,0-1.82,2h-2.3a5.32,5.32,0,0,1,1.19-3.37,3.6,3.6,0,0,1,2.81-1.19,4.23,4.23,0,0,1,1.6.3,11.51,11.51,0,0,1,1.64.85q.87.47,1.33.67a2.4,2.4,0,0,0,1,.2q1.58,0,1.82-2h2.3A5.32,5.32,0,0,1,107.61,285.55Z"/><path d="M59,267.14q1.9,2.1,1.9,6.18v12.28H57.4v-12q0-3-1.19-4.38a4.39,4.39,0,0,0-3.44-1.33A4.86,4.86,0,0,0,49,269.51a6.5,6.5,0,0,0-1.48,4.55v11.52H44.05V265.47h3.37v2.65h.08A6.78,6.78,0,0,1,50,265.87,7.55,7.55,0,0,1,53.6,265,6.9,6.9,0,0,1,59,267.14ZM58.11,261a3.61,3.61,0,0,1-2.81,1.19,4.25,4.25,0,0,1-1.6-.3,11.77,11.77,0,0,1-1.64-.85c-.58-.32-1-.54-1.33-.67a2.41,2.41,0,0,0-1-.2q-1.62,0-1.82,2h-2.3a5.31,5.31,0,0,1,1.19-3.37,3.59,3.59,0,0,1,2.81-1.19,4.23,4.23,0,0,1,1.6.3,11.57,11.57,0,0,1,1.64.85q.87.48,1.33.67a2.41,2.41,0,0,0,1,.2q1.59,0,1.82-2h2.3A5.34,5.34,0,0,1,58.11,261Z"/><path d="M23.34,214.87q1.9,2.1,1.9,6.18v12.28H21.76v-12q0-3-1.19-4.38a4.38,4.38,0,0,0-3.44-1.33,4.86,4.86,0,0,0-3.74,1.62,6.5,6.5,0,0,0-1.48,4.55v11.52H8.42V213.2h3.37v2.65h.08a6.76,6.76,0,0,1,2.53-2.26,7.55,7.55,0,0,1,3.56-.83A6.89,6.89,0,0,1,23.34,214.87Zm-.87-6.14a3.6,3.6,0,0,1-2.81,1.19,4.22,4.22,0,0,1-1.6-.3,11.62,11.62,0,0,1-1.64-.85q-.87-.47-1.33-.67a2.42,2.42,0,0,0-1-.2q-1.62,0-1.82,2H10a5.32,5.32,0,0,1,1.19-3.37A3.6,3.6,0,0,1,14,205.36a4.22,4.22,0,0,1,1.6.3,11.6,11.6,0,0,1,1.64.85q.87.47,1.33.67a2.41,2.41,0,0,0,1,.2q1.58,0,1.82-2h2.3A5.31,5.31,0,0,1,22.47,208.73Z"/><path d="M23.34,100q1.9,2.1,1.9,6.18v12.28H21.76v-12q0-3-1.19-4.38a4.38,4.38,0,0,0-3.44-1.33,4.86,4.86,0,0,0-3.74,1.62A6.5,6.5,0,0,0,11.9,107v11.52H8.42V98.36h3.37V101h.08a6.75,6.75,0,0,1,2.53-2.26A7.54,7.54,0,0,1,18,97.93,6.89,6.89,0,0,1,23.34,100Zm-.87-6.14a3.6,3.6,0,0,1-2.81,1.19,4.22,4.22,0,0,1-1.6-.3,11.56,11.56,0,0,1-1.64-.85q-.87-.47-1.33-.67a2.41,2.41,0,0,0-1-.2q-1.62,0-1.82,2H10a5.31,5.31,0,0,1,1.19-3.37A3.6,3.6,0,0,1,14,90.52a4.21,4.21,0,0,1,1.6.3,11.49,11.49,0,0,1,1.64.85c.58.32,1,.54,1.33.67a2.42,2.42,0,0,0,1,.2q1.58,0,1.82-2h2.3A5.31,5.31,0,0,1,22.47,93.89Z"/><path d="M59,51.72q1.9,2.1,1.9,6.18V70.17H57.4v-12q0-3-1.19-4.38a4.39,4.39,0,0,0-3.44-1.33A4.86,4.86,0,0,0,49,54.09a6.5,6.5,0,0,0-1.48,4.55V70.17H44.05V50.05h3.37v2.65h.08A6.77,6.77,0,0,1,50,50.45a7.54,7.54,0,0,1,3.56-.83A6.9,6.9,0,0,1,59,51.72Zm-.87-6.14a3.61,3.61,0,0,1-2.81,1.19,4.23,4.23,0,0,1-1.6-.3,11.48,11.48,0,0,1-1.64-.85q-.87-.47-1.33-.67a2.41,2.41,0,0,0-1-.2q-1.62,0-1.82,2h-2.3a5.31,5.31,0,0,1,1.19-3.37,3.6,3.6,0,0,1,2.81-1.19,4.23,4.23,0,0,1,1.6.3,11.54,11.54,0,0,1,1.64.85c.58.32,1,.54,1.33.67a2.39,2.39,0,0,0,1,.2q1.59,0,1.82-2h2.3A5.33,5.33,0,0,1,58.11,45.58Z"/><path d="M108.48,20.83q1.9,2.1,1.9,6.18V39.28H106.9v-12q0-3-1.19-4.38a4.38,4.38,0,0,0-3.44-1.33,4.86,4.86,0,0,0-3.74,1.62A6.5,6.5,0,0,0,97,27.76V39.28H93.55V19.17h3.37v2.65H97a6.78,6.78,0,0,1,2.54-2.26,7.55,7.55,0,0,1,3.56-.83A6.89,6.89,0,0,1,108.48,20.83Zm-.87-6.14a3.6,3.6,0,0,1-2.81,1.19,4.24,4.24,0,0,1-1.6-.3,11.64,11.64,0,0,1-1.64-.85c-.58-.32-1-.54-1.33-.67a2.42,2.42,0,0,0-1-.2q-1.62,0-1.82,2h-2.3a5.31,5.31,0,0,1,1.19-3.37,3.6,3.6,0,0,1,2.81-1.19,4.23,4.23,0,0,1,1.6.3,11.67,11.67,0,0,1,1.64.85q.87.48,1.33.67a2.4,2.4,0,0,0,1,.2q1.58,0,1.82-2h2.3A5.32,5.32,0,0,1,107.61,14.69Z"/><path d="M221.74,16.87q1.9,2.1,1.9,6.18V35.32h-3.49v-12q0-3-1.19-4.38a4.39,4.39,0,0,0-3.44-1.33,4.86,4.86,0,0,0-3.74,1.62,6.5,6.5,0,0,0-1.48,4.55V35.32h-3.49V15.2h3.37v2.65h.08a6.76,6.76,0,0,1,2.53-2.26,7.55,7.55,0,0,1,3.56-.83A6.89,6.89,0,0,1,221.74,16.87Zm-.87-6.14a3.6,3.6,0,0,1-2.81,1.19,4.22,4.22,0,0,1-1.6-.3,11.54,11.54,0,0,1-1.64-.85c-.58-.32-1-.54-1.33-.67a2.43,2.43,0,0,0-1-.2q-1.62,0-1.82,2h-2.3a5.31,5.31,0,0,1,1.19-3.37,3.6,3.6,0,0,1,2.81-1.19,4.23,4.23,0,0,1,1.6.3,11.59,11.59,0,0,1,1.64.85q.87.48,1.33.67a2.41,2.41,0,0,0,1,.2q1.58,0,1.82-2h2.3A5.31,5.31,0,0,1,220.87,10.73Z"/><path d="M266.48,54.88q1.9,2.1,1.9,6.18V73.34H264.9v-12q0-3-1.19-4.38a4.38,4.38,0,0,0-3.44-1.33,4.86,4.86,0,0,0-3.74,1.62A6.5,6.5,0,0,0,255,61.81V73.34h-3.48V53.22h3.37v2.65H255a6.75,6.75,0,0,1,2.53-2.26,7.55,7.55,0,0,1,3.56-.83A6.9,6.9,0,0,1,266.48,54.88Zm-.87-6.14a3.61,3.61,0,0,1-2.81,1.19,4.23,4.23,0,0,1-1.6-.3,11.61,11.61,0,0,1-1.64-.85q-.87-.47-1.33-.67a2.42,2.42,0,0,0-1-.2q-1.62,0-1.82,2h-2.3a5.31,5.31,0,0,1,1.19-3.37,3.6,3.6,0,0,1,2.81-1.19,4.24,4.24,0,0,1,1.6.3,11.84,11.84,0,0,1,1.64.85q.87.47,1.33.67a2.39,2.39,0,0,0,1,.2q1.58,0,1.82-2h2.3A5.33,5.33,0,0,1,265.61,48.75Z"/><path d="M297.37,100q1.9,2.1,1.9,6.18v12.28h-3.49v-12q0-3-1.19-4.38a4.38,4.38,0,0,0-3.44-1.33,4.86,4.86,0,0,0-3.74,1.62,6.5,6.5,0,0,0-1.48,4.55v11.52h-3.48V98.36h3.37V101h.08a6.76,6.76,0,0,1,2.53-2.26,7.54,7.54,0,0,1,3.56-.83A6.9,6.9,0,0,1,297.37,100Zm-.87-6.14a3.6,3.6,0,0,1-2.81,1.19,4.22,4.22,0,0,1-1.6-.3,11.46,11.46,0,0,1-1.64-.85q-.87-.47-1.33-.67a2.41,2.41,0,0,0-1-.2q-1.62,0-1.82,2H284a5.31,5.31,0,0,1,1.19-3.37A3.6,3.6,0,0,1,288,90.52a4.21,4.21,0,0,1,1.6.3,11.5,11.5,0,0,1,1.64.85c.58.32,1,.54,1.33.67a2.41,2.41,0,0,0,1,.2q1.58,0,1.82-2h2.3A5.32,5.32,0,0,1,296.5,93.89Z"/><text class="cls-1" transform="translate(136.46 181.15)"><tspan class="cls-2">N</tspan><tspan class="cls-3" x="45.95" y="0">u</tspan><tspan class="cls-4" x="81.2" y="0">e</tspan><tspan class="cls-5" x="114.74" y="0">v</tspan><tspan class="cls-6" x="143.39" y="0">a </tspan><tspan class="cls-7" x="191.8" y="0">f</tspan><tspan class="cls-8" x="209.68" y="0">o</tspan><tspan class="cls-9" x="244.18" y="0">t</tspan><tspan class="cls-10" x="262.6" y="0">o</tspan><tspan class="cls-11" x="297.53" y="0">g</tspan><tspan class="cls-12" x="332.1" y="0">r</tspan><tspan class="cls-13" x="354.26" y="0">a</tspan><tspan class="cls-14" x="386.35" y="0">f</tspan><tspan class="cls-15" x="404.37" y="0">í</tspan><tspan x="418.36" y="0">a </tspan><tspan class="cls-16" x="466.77" y="0">l</tspan><tspan class="cls-17" x="481.12" y="0">a</tspan><tspan class="cls-18" x="513.27" y="0">t</tspan><tspan class="cls-11" x="531.91" y="0">i</tspan><tspan class="cls-19" x="545.54" y="0">n</tspan><tspan class="cls-10" x="580.86" y="0">o</tspan><tspan class="cls-20" x="615.79" y="0">a</tspan><tspan class="cls-21" x="647.81" y="0">m</tspan><tspan class="cls-22" x="701.36" y="0">e</tspan><tspan class="cls-23" x="734.92" y="0">r</tspan><tspan class="cls-24" x="756.67" y="0">i</tspan><tspan class="cls-25" x="770.87" y="0">c</tspan><tspan class="cls-20" x="804.14" y="0">a</tspan><tspan class="cls-26" x="836.16" y="0">n</tspan><tspan class="cls-27" x="871.48" y="0">a</tspan><tspan x="904.47" y="0">. —</tspan></text></g></g></svg>