<?xml version="1.0" encoding="utf-8"?>
<!-- Generator: Adobe Illustrator 21.1.0, SVG Export Plug-In . SVG Version: 6.00 Build 0)  -->
<svg version="1.1" id="Layer_1" xmlns="http://www.w3.org/2000/svg" xmlns:xlink="http://www.w3.org/1999/xlink" x="0px" y="0px"
	 viewBox="0 0 627 925" style="enable-background:new 0 0 627 925;" xml:space="preserve">
<style type="text/css">
	.st0{enable-background:new    ;}
	.st1{clip-path:url(#SVGID_2_);fill:none;stroke:#000000;stroke-width:0.25;stroke-miterlimit:10;}
	.st2{clip-path:url(#SVGID_4_);fill:none;stroke:#000000;stroke-width:0.25;stroke-miterlimit:10;}
	.st3{clip-path:url(#SVGID_6_);enable-background:new    ;}
	.st4{fill:none;stroke:#000000;stroke-width:0.25;stroke-miterlimit:10;}
	.st5{clip-path:url(#SVGID_6_);fill:none;stroke:#000000;stroke-width:0.25;stroke-miterlimit:10;}
	.st6{clip-path:url(#SVGID_8_);fill:none;stroke:#000000;stroke-width:0.25;stroke-miterlimit:10;}
	.st7{clip-path:url(#SVGID_10_);fill:none;stroke:#000000;stroke-width:0.25;stroke-miterlimit:10;}
	.st8{clip-path:url(#SVGID_12_);fill:none;stroke:#000000;stroke-width:0.25;stroke-miterlimit:10;}
	.st9{clip-path:url(#SVGID_14_);enable-background:new    ;}
	.st10{clip-path:url(#SVGID_14_);fill:none;stroke:#000000;stroke-width:0.25;stroke-miterlimit:10;}
	.st11{clip-path:url(#SVGID_16_);enable-background:new    ;}
	.st12{clip-path:url(#SVGID_16_);fill:none;stroke:#000000;stroke-width:0.25;stroke-miterlimit:10;}
	.st13{clip-path:url(#SVGID_18_);fill:none;stroke:#000000;stroke-width:0.25;stroke-miterlimit:10;}
	.st14{clip-path:url(#SVGID_20_);fill:none;stroke:#000000;stroke-width:0.25;stroke-miterlimit:10;}
	.st15{clip-path:url(#SVGID_22_);fill:none;stroke:#000000;stroke-width:0.25;stroke-miterlimit:10;}
	.st16{clip-path:url(#SVGID_24_);fill:none;stroke:#000000;stroke-width:0.25;stroke-miterlimit:10;}
	.st17{clip-path:url(#SVGID_26_);fill:none;stroke:#000000;stroke-width:0.25;stroke-miterlimit:10;}
	.st18{clip-path:url(#SVGID_28_);fill:none;stroke:#000000;stroke-width:0.25;stroke-miterlimit:10;}
	.st19{clip-path:url(#SVGID_30_);enable-background:new    ;}
	.st20{clip-path:url(#SVGID_30_);fill:none;stroke:#000000;stroke-width:0.25;stroke-miterlimit:10;}
	.st21{clip-path:url(#SVGID_32_);enable-background:new    ;}
	.st22{clip-path:url(#SVGID_32_);fill:none;stroke:#000000;stroke-width:0.25;stroke-miterlimit:10;}
	.st23{clip-path:url(#SVGID_34_);fill:none;stroke:#000000;stroke-width:0.25;stroke-miterlimit:10;}
	.st24{clip-path:url(#SVGID_36_);fill:none;stroke:#000000;stroke-width:0.25;stroke-miterlimit:10;}
	.st25{clip-path:url(#SVGID_38_);enable-background:new    ;}
	.st26{clip-path:url(#SVGID_38_);fill:none;stroke:#000000;stroke-width:0.25;stroke-miterlimit:10;}
	.st27{clip-path:url(#SVGID_40_);fill:none;stroke:#000000;stroke-width:0.25;stroke-miterlimit:10;}
	.st28{clip-path:url(#SVGID_42_);enable-background:new    ;}
	.st29{clip-path:url(#SVGID_42_);fill:none;stroke:#000000;stroke-width:0.25;stroke-miterlimit:10;}
	.st30{clip-path:url(#SVGID_44_);enable-background:new    ;}
	.st31{clip-path:url(#SVGID_44_);fill:none;stroke:#000000;stroke-width:0.25;stroke-miterlimit:10;}
	.st32{clip-path:url(#SVGID_46_);fill:none;stroke:#000000;stroke-width:0.25;stroke-miterlimit:10;}
	.st33{clip-path:url(#SVGID_48_);enable-background:new    ;}
	.st34{clip-path:url(#SVGID_48_);fill:none;stroke:#000000;stroke-width:0.25;stroke-miterlimit:10;}
	.st35{clip-path:url(#SVGID_50_);enable-background:new    ;}
	.st36{clip-path:url(#SVGID_50_);fill:none;stroke:#000000;stroke-width:0.25;stroke-miterlimit:10;}
</style>
<g id="XMLID_5_">
	<g>
		<g class="st0">
			<g class="st0">
				<defs>
					<path id="SVGID_1_" class="st0" d="M391.8,268.6c32,33.7,48,87.8,47.8,162l-0.6,335.5l-88.3,12.4l0.6-327.9
						c0.1-55.5-9.9-94-29.9-115.4c-20-21.3-49.1-29.4-87.2-24c-38.1,5.4-69.7,24.6-94.9,57.7c-25.1,33.1-37.7,76.3-37.8,129.7
						l-0.6,315L12.9,826l1-549.8l85.2-12L99,336.8l2-0.3c16.1-28.2,37.5-51.8,64.3-70.7c26.8-18.9,56.9-30.7,90.3-35.4
						C314.4,222.1,359.8,234.8,391.8,268.6z"/>
				</defs>
				<clipPath id="SVGID_2_">
					<use xlink:href="#SVGID_1_"  style="overflow:visible;"/>
				</clipPath>
				<path class="st1" d="M391.8,268.6c32,33.7,48,87.8,47.8,162l-0.6,335.5l-88.3,12.4l0.6-327.9c0.1-55.5-9.9-94-29.9-115.4
					c-20-21.3-49.1-29.4-87.2-24c-38.1,5.4-69.7,24.6-94.9,57.7c-25.1,33.1-37.7,76.3-37.8,129.7l-0.6,315L12.9,826l1-549.8l85.2-12
					L99,336.8l2-0.3c16.1-28.2,37.5-51.8,64.3-70.7c26.8-18.9,56.9-30.7,90.3-35.4C314.4,222.1,359.8,234.8,391.8,268.6z"/>
			</g>
			<g class="st0">
				<defs>
					<path id="SVGID_3_" class="st0" d="M565.5,363.1c32,33.7,48,87.8,47.8,162l-0.6,335.5L524.5,873l0.6-327.9
						c0.1-55.5-9.9-94-29.9-115.4c-20-21.3-49.1-29.4-87.2-24c-38.1,5.4-69.7,24.6-94.9,57.7c-25.1,33.1-37.7,76.3-37.8,129.7
						l-0.6,315l-88.3,12.4l1-549.8l85.2-12l-0.1,72.5l2-0.3c16.1-28.2,37.5-51.8,64.3-70.7c26.8-18.9,56.9-30.7,90.3-35.4
						C488.1,316.6,533.5,329.3,565.5,363.1z"/>
				</defs>
				<clipPath id="SVGID_4_">
					<use xlink:href="#SVGID_3_"  style="overflow:visible;"/>
				</clipPath>
				<path class="st2" d="M565.5,363.1c32,33.7,48,87.8,47.8,162l-0.6,335.5L524.5,873l0.6-327.9c0.1-55.5-9.9-94-29.9-115.4
					c-20-21.3-49.1-29.4-87.2-24c-38.1,5.4-69.7,24.6-94.9,57.7c-25.1,33.1-37.7,76.3-37.8,129.7l-0.6,315l-88.3,12.4l1-549.8
					l85.2-12l-0.1,72.5l2-0.3c16.1-28.2,37.5-51.8,64.3-70.7c26.8-18.9,56.9-30.7,90.3-35.4C488.1,316.6,533.5,329.3,565.5,363.1z"
					/>
			</g>
			<g class="st0">
				<defs>
					<path id="SVGID_5_" class="st0" d="M565.5,363.1c32,33.7,48,87.8,47.8,162l-173.7-94.5c0.1-74.3-15.8-128.3-47.8-162
						L565.5,363.1z"/>
				</defs>
				<clipPath id="SVGID_6_">
					<use xlink:href="#SVGID_5_"  style="overflow:visible;"/>
				</clipPath>
				<g class="st3">
					<g>
						<path class="st4" d="M565.5,363.1l-173.7-94.5c32,33.7,48,87.8,47.8,162l173.7,94.5C613.5,450.8,597.5,396.8,565.5,363.1z"/>
						<line class="st4" x1="592.2" y1="403.5" x2="418.5" y2="309.1"/>
						<line class="st4" x1="608.1" y1="457.6" x2="434.5" y2="363.1"/>
					</g>
				</g>
				<path class="st5" d="M565.5,363.1c32,33.7,48,87.8,47.8,162l-173.7-94.5c0.1-74.3-15.8-128.3-47.8-162L565.5,363.1z"/>
			</g>
			<g class="st0">
				<defs>
					<polygon id="SVGID_7_" class="st0" points="613.4,525.1 612.7,860.6 439.1,766.1 439.7,430.6 					"/>
				</defs>
				<clipPath id="SVGID_8_">
					<use xlink:href="#SVGID_7_"  style="overflow:visible;"/>
				</clipPath>
				<polygon class="st6" points="613.4,525.1 612.7,860.6 439.1,766.1 439.7,430.6 				"/>
			</g>
			<g class="st0">
				<defs>
					<polygon id="SVGID_9_" class="st0" points="612.7,860.6 524.5,873 350.8,778.5 439.1,766.1 					"/>
				</defs>
				<clipPath id="SVGID_10_">
					<use xlink:href="#SVGID_9_"  style="overflow:visible;"/>
				</clipPath>
				<polygon class="st7" points="612.7,860.6 524.5,873 350.8,778.5 439.1,766.1 				"/>
			</g>
			<g class="st0">
				<defs>
					<polygon id="SVGID_11_" class="st0" points="524.5,873 350.8,778.5 351.4,450.6 525.1,545.1 					"/>
				</defs>
				<clipPath id="SVGID_12_">
					<use xlink:href="#SVGID_11_"  style="overflow:visible;"/>
				</clipPath>
				<polygon class="st8" points="524.5,873 350.8,778.5 351.4,450.6 525.1,545.1 				"/>
			</g>
			<g class="st0">
				<defs>
					<path id="SVGID_13_" class="st0" d="M475.8,414.7c-18-9.8-40.6-12.8-67.7-9c-38.1,5.4-69.7,24.6-94.9,57.7
						c-25.1,33.1-37.7,76.3-37.8,129.7l-173.7-94.5c0.1-53.4,12.7-96.6,37.8-129.7c25.1-33.1,56.8-52.4,94.9-57.7
						c27.2-3.8,49.8-0.8,67.7,9C354.2,348.5,423.7,386.3,475.8,414.7z"/>
				</defs>
				<clipPath id="SVGID_14_">
					<use xlink:href="#SVGID_13_"  style="overflow:visible;"/>
				</clipPath>
				<g class="st9">
					<g>
						<path class="st4" d="M495.2,429.7l-173.7-94.5c-20-21.3-49.1-29.4-87.2-24l173.7,94.5C446.1,400.4,475.2,408.4,495.2,429.7z"
							/>
						<line class="st4" x1="472.2" y1="412.8" x2="298.5" y2="318.3"/>
						<line class="st4" x1="443.1" y1="404.8" x2="269.4" y2="310.3"/>
					</g>
					<g>
						<path class="st4" d="M408.1,405.7l-173.7-94.5c-38.1,5.4-69.7,24.6-94.9,57.7l173.7,94.5C338.3,430.3,370,411.1,408.1,405.7z"
							/>
						<line class="st4" x1="372.1" y1="415.7" x2="198.4" y2="321.2"/>
						<line class="st4" x1="340.5" y1="434.9" x2="166.8" y2="340.5"/>
					</g>
					<g>
						<path class="st4" d="M313.2,463.4L139.5,369c-25.1,33.1-37.7,76.3-37.8,129.7l173.7,94.5C275.5,539.8,288.1,496.5,313.2,463.4
							z"/>
						<line class="st4" x1="292.2" y1="499.9" x2="118.6" y2="405.4"/>
						<line class="st4" x1="279.6" y1="543.2" x2="106" y2="448.7"/>
					</g>
				</g>
				<path class="st10" d="M475.8,414.7c-18-9.8-40.6-12.8-67.7-9c-38.1,5.4-69.7,24.6-94.9,57.7c-25.1,33.1-37.7,76.3-37.8,129.7
					l-173.7-94.5c0.1-53.4,12.7-96.6,37.8-129.7c25.1-33.1,56.8-52.4,94.9-57.7c27.2-3.8,49.8-0.8,67.7,9
					C354.2,348.5,423.7,386.3,475.8,414.7z"/>
			</g>
			<g class="st0">
				<defs>
					<path id="SVGID_15_" class="st0" d="M302.1,320.2l173.7,94.5c7.2,3.9,13.7,8.9,19.4,15c20,21.4,30,59.8,29.9,115.4l-173.7-94.5
						c0.1-55.5-9.9-94-29.9-115.4C315.8,329.1,309.3,324.1,302.1,320.2z"/>
				</defs>
				<clipPath id="SVGID_16_">
					<use xlink:href="#SVGID_15_"  style="overflow:visible;"/>
				</clipPath>
				<g class="st11">
					<g>
						<path class="st4" d="M525.1,545.1l-173.7-94.5c0.1-55.5-9.9-94-29.9-115.4l173.7,94.5C515.2,451.1,525.2,489.6,525.1,545.1z"
							/>
						<line class="st4" x1="521.8" y1="495.2" x2="348.2" y2="400.8"/>
						<line class="st4" x1="511.9" y1="456.8" x2="338.2" y2="362.3"/>
					</g>
					<g>
						<path class="st4" d="M495.2,429.7l-173.7-94.5c-20-21.3-49.1-29.4-87.2-24l173.7,94.5C446.1,400.4,475.2,408.4,495.2,429.7z"
							/>
					</g>
				</g>
				<path class="st12" d="M302.1,320.2l173.7,94.5c7.2,3.9,13.7,8.9,19.4,15c20,21.4,30,59.8,29.9,115.4l-173.7-94.5
					c0.1-55.5-9.9-94-29.9-115.4C315.8,329.1,309.3,324.1,302.1,320.2z"/>
			</g>
			<g class="st0">
				<defs>
					<polygon id="SVGID_17_" class="st0" points="275.4,593.2 274.8,908.1 101.1,813.6 101.7,498.7 					"/>
				</defs>
				<clipPath id="SVGID_18_">
					<use xlink:href="#SVGID_17_"  style="overflow:visible;"/>
				</clipPath>
				<polygon class="st13" points="275.4,593.2 274.8,908.1 101.1,813.6 101.7,498.7 				"/>
			</g>
			<g class="st0">
				<defs>
					<polygon id="SVGID_19_" class="st0" points="274.8,908.1 186.5,920.5 12.9,826 101.1,813.6 					"/>
				</defs>
				<clipPath id="SVGID_20_">
					<use xlink:href="#SVGID_19_"  style="overflow:visible;"/>
				</clipPath>
				<polygon class="st14" points="274.8,908.1 186.5,920.5 12.9,826 101.1,813.6 				"/>
			</g>
			<g class="st0">
				<defs>
					<polygon id="SVGID_21_" class="st0" points="186.5,920.5 12.9,826 13.9,276.2 187.6,370.7 					"/>
				</defs>
				<clipPath id="SVGID_22_">
					<use xlink:href="#SVGID_21_"  style="overflow:visible;"/>
				</clipPath>
				<polygon class="st15" points="186.5,920.5 12.9,826 13.9,276.2 187.6,370.7 				"/>
			</g>
			<g class="st0">
				<defs>
					<polygon id="SVGID_23_" class="st0" points="187.6,370.7 13.9,276.2 99.1,264.3 272.8,358.7 					"/>
				</defs>
				<clipPath id="SVGID_24_">
					<use xlink:href="#SVGID_23_"  style="overflow:visible;"/>
				</clipPath>
				<polygon class="st16" points="187.6,370.7 13.9,276.2 99.1,264.3 272.8,358.7 				"/>
			</g>
			<g class="st0">
				<defs>
					<polygon id="SVGID_25_" class="st0" points="272.8,358.7 272.7,431.3 99,336.8 99.1,264.3 					"/>
				</defs>
				<clipPath id="SVGID_26_">
					<use xlink:href="#SVGID_25_"  style="overflow:visible;"/>
				</clipPath>
				<polygon class="st17" points="272.8,358.7 272.7,431.3 99,336.8 99.1,264.3 				"/>
			</g>
			<g class="st0">
				<defs>
					<polygon id="SVGID_27_" class="st0" points="272.7,431.3 99,336.8 101,336.5 274.7,431 					"/>
				</defs>
				<clipPath id="SVGID_28_">
					<use xlink:href="#SVGID_27_"  style="overflow:visible;"/>
				</clipPath>
				<polygon class="st18" points="272.7,431.3 99,336.8 101,336.5 274.7,431 				"/>
			</g>
			<g class="st0">
				<defs>
					<path id="SVGID_29_" class="st0" d="M534.5,339.1c11.5,6.2,21.8,14.2,31,23.9l-173.7-94.5c-9.2-9.7-19.6-17.7-31-23.9
						C412.9,273,482.4,310.8,534.5,339.1z"/>
				</defs>
				<clipPath id="SVGID_30_">
					<use xlink:href="#SVGID_29_"  style="overflow:visible;"/>
				</clipPath>
				<g class="st19">
					<g>
						<path class="st4" d="M429.3,324.9l-173.7-94.5c58.8-8.3,104.3,4.5,136.3,38.2l173.7,94.5C533.5,329.3,488.1,316.6,429.3,324.9
							z"/>
					</g>
				</g>
				<path class="st20" d="M534.5,339.1c11.5,6.2,21.8,14.2,31,23.9l-173.7-94.5c-9.2-9.7-19.6-17.7-31-23.9
					C412.9,273,482.4,310.8,534.5,339.1z"/>
			</g>
			<g class="st0">
				<defs>
					<path id="SVGID_31_" class="st0" d="M360.8,244.6l173.7,94.5c-28.3-15.4-63.4-20.1-105.3-14.3c-33.4,4.7-63.5,16.5-90.3,35.4
						c-26.8,18.9-48.2,42.5-64.3,70.7L101,336.5c16.1-28.2,37.5-51.8,64.3-70.7c26.8-18.9,56.9-30.7,90.3-35.4
						C297.4,224.5,332.5,229.2,360.8,244.6z"/>
				</defs>
				<clipPath id="SVGID_32_">
					<use xlink:href="#SVGID_31_"  style="overflow:visible;"/>
				</clipPath>
				<g class="st21">
					<g>
						<path class="st4" d="M274.7,431L101,336.5c16.1-28.2,37.5-51.8,64.3-70.7L339,360.2C312.2,379.2,290.8,402.7,274.7,431z"/>
						<line class="st4" x1="292.5" y1="404.3" x2="118.9" y2="309.8"/>
						<line class="st4" x1="314" y1="380.7" x2="140.3" y2="286.2"/>
					</g>
					<g>
						<path class="st4" d="M339,360.2l-173.7-94.5c26.8-18.9,56.9-30.7,90.3-35.4l173.7,94.5C395.8,329.6,365.7,341.3,339,360.2z"/>
						<line class="st4" x1="366.8" y1="343.7" x2="193.1" y2="249.2"/>
						<line class="st4" x1="396.9" y1="331.9" x2="223.2" y2="237.4"/>
					</g>
					<g>
						<path class="st4" d="M429.3,324.9l-173.7-94.5c58.8-8.3,104.3,4.5,136.3,38.2l173.7,94.5C533.5,329.3,488.1,316.6,429.3,324.9
							z"/>
						<line class="st4" x1="483.6" y1="323.6" x2="309.9" y2="229.1"/>
						<line class="st4" x1="529.1" y1="336.3" x2="355.4" y2="241.8"/>
					</g>
				</g>
				<path class="st22" d="M360.8,244.6l173.7,94.5c-28.3-15.4-63.4-20.1-105.3-14.3c-33.4,4.7-63.5,16.5-90.3,35.4
					c-26.8,18.9-48.2,42.5-64.3,70.7L101,336.5c16.1-28.2,37.5-51.8,64.3-70.7c26.8-18.9,56.9-30.7,90.3-35.4
					C297.4,224.5,332.5,229.2,360.8,244.6z"/>
			</g>
			<g class="st0">
				<defs>
					<path id="SVGID_33_" class="st0" d="M158.5,110.9c-27.4,3.9-42.8,24.4-46.2,61.7l-58.1,8.2c2.1-39.9,12.1-72,30.3-96.2
						c18.1-24.2,41.8-38.3,71.2-42.5c14.7-2.1,28.2-1.2,40.6,2.4c12.4,3.7,26.2,9.5,41.6,17.4c14.7,6.6,25.9,11.1,33.6,13.7
						c7.7,2.5,15.9,3.2,24.6,2c26.7-3.8,42.1-24.3,46.2-61.7l58.2-8.2c-2.1,40-12.2,72-30.3,96.2c-18.1,24.2-41.9,38.3-71.3,42.5
						c-14.7,2.1-28.2,1.3-40.6-2.4c-12.4-3.6-26.2-9.5-41.6-17.4c-14.7-6.6-25.9-11.1-33.6-13.7
						C175.4,110.3,167.2,109.7,158.5,110.9z"/>
				</defs>
				<clipPath id="SVGID_34_">
					<use xlink:href="#SVGID_33_"  style="overflow:visible;"/>
				</clipPath>
				<path class="st23" d="M158.5,110.9c-27.4,3.9-42.8,24.4-46.2,61.7l-58.1,8.2c2.1-39.9,12.1-72,30.3-96.2
					c18.1-24.2,41.8-38.3,71.2-42.5c14.7-2.1,28.2-1.2,40.6,2.4c12.4,3.7,26.2,9.5,41.6,17.4c14.7,6.6,25.9,11.1,33.6,13.7
					c7.7,2.5,15.9,3.2,24.6,2c26.7-3.8,42.1-24.3,46.2-61.7l58.2-8.2c-2.1,40-12.2,72-30.3,96.2c-18.1,24.2-41.9,38.3-71.3,42.5
					c-14.7,2.1-28.2,1.3-40.6-2.4c-12.4-3.6-26.2-9.5-41.6-17.4c-14.7-6.6-25.9-11.1-33.6-13.7C175.4,110.3,167.2,109.7,158.5,110.9
					z"/>
			</g>
			<g class="st0">
				<defs>
					<path id="SVGID_35_" class="st0" d="M332.2,205.4c-27.4,3.9-42.8,24.4-46.2,61.7l-58.1,8.2c2.1-39.9,12.1-72,30.3-96.2
						c18.1-24.2,41.8-38.3,71.2-42.5c14.7-2.1,28.2-1.2,40.6,2.4c12.4,3.7,26.2,9.5,41.6,17.4c14.7,6.6,25.9,11.1,33.6,13.7
						c7.7,2.5,15.9,3.2,24.6,2c26.7-3.8,42.1-24.3,46.2-61.7l58.2-8.2c-2.1,40-12.2,72-30.3,96.2c-18.1,24.2-41.9,38.3-71.3,42.5
						c-14.7,2.1-28.2,1.3-40.6-2.4c-12.4-3.6-26.2-9.5-41.6-17.4c-14.7-6.6-25.9-11.1-33.6-13.7
						C349.1,204.8,340.9,204.2,332.2,205.4z"/>
				</defs>
				<clipPath id="SVGID_36_">
					<use xlink:href="#SVGID_35_"  style="overflow:visible;"/>
				</clipPath>
				<path class="st24" d="M332.2,205.4c-27.4,3.9-42.8,24.4-46.2,61.7l-58.1,8.2c2.1-39.9,12.1-72,30.3-96.2
					c18.1-24.2,41.8-38.3,71.2-42.5c14.7-2.1,28.2-1.2,40.6,2.4c12.4,3.7,26.2,9.5,41.6,17.4c14.7,6.6,25.9,11.1,33.6,13.7
					c7.7,2.5,15.9,3.2,24.6,2c26.7-3.8,42.1-24.3,46.2-61.7l58.2-8.2c-2.1,40-12.2,72-30.3,96.2c-18.1,24.2-41.9,38.3-71.3,42.5
					c-14.7,2.1-28.2,1.3-40.6-2.4c-12.4-3.6-26.2-9.5-41.6-17.4c-14.7-6.6-25.9-11.1-33.6-13.7C349.1,204.8,340.9,204.2,332.2,205.4
					z"/>
			</g>
			<g class="st0">
				<defs>
					<path id="SVGID_37_" class="st0" d="M332.2,205.4c-27.4,3.9-42.8,24.4-46.2,61.7l-173.7-94.5c3.4-37.3,18.8-57.8,46.2-61.7
						L332.2,205.4z"/>
				</defs>
				<clipPath id="SVGID_38_">
					<use xlink:href="#SVGID_37_"  style="overflow:visible;"/>
				</clipPath>
				<g class="st25">
					<g>
						<path class="st4" d="M332.2,205.4l-173.7-94.5c-27.4,3.9-42.8,24.4-46.2,61.7L286,267.1C289.4,229.8,304.8,209.3,332.2,205.4z
							"/>
						<line class="st4" x1="308.8" y1="214.8" x2="135.1" y2="120.3"/>
						<line class="st4" x1="293.4" y1="235.4" x2="119.7" y2="140.9"/>
					</g>
				</g>
				<path class="st26" d="M332.2,205.4c-27.4,3.9-42.8,24.4-46.2,61.7l-173.7-94.5c3.4-37.3,18.8-57.8,46.2-61.7L332.2,205.4z"/>
			</g>
			<g class="st0">
				<defs>
					<polygon id="SVGID_39_" class="st0" points="286,267.1 227.9,275.2 54.2,180.8 112.3,172.6 					"/>
				</defs>
				<clipPath id="SVGID_40_">
					<use xlink:href="#SVGID_39_"  style="overflow:visible;"/>
				</clipPath>
				<polygon class="st27" points="286,267.1 227.9,275.2 54.2,180.8 112.3,172.6 				"/>
			</g>
			<g class="st0">
				<defs>
					<path id="SVGID_41_" class="st0" d="M227.9,275.2L54.2,180.8c2.1-39.9,12.1-72,30.3-96.2c18.1-24.2,41.8-38.3,71.2-42.5
						c14.7-2.1,28.2-1.2,40.6,2.4c12.4,3.7,26.2,9.5,41.6,17.4l173.7,94.5c-15.4-7.9-29.2-13.7-41.6-17.4
						c-12.4-3.6-25.9-4.5-40.6-2.4c-29.4,4.1-53.2,18.3-71.2,42.5C240,203.2,229.9,235.3,227.9,275.2z"/>
				</defs>
				<clipPath id="SVGID_42_">
					<use xlink:href="#SVGID_41_"  style="overflow:visible;"/>
				</clipPath>
				<g class="st28">
					<g>
						<path class="st4" d="M227.9,275.2L54.2,180.8c2.1-39.9,12.1-72,30.3-96.2L258.1,179C240,203.2,229.9,235.3,227.9,275.2z"/>
						<line class="st4" x1="232.6" y1="237.9" x2="58.9" y2="143.4"/>
						<line class="st4" x1="242.7" y1="205.8" x2="69" y2="111.3"/>
					</g>
					<g>
						<path class="st4" d="M258.1,179L84.4,84.5c18.1-24.2,41.8-38.3,71.2-42.5l173.7,94.5C299.9,140.7,276.2,154.8,258.1,179z"/>
						<line class="st4" x1="278.1" y1="158.2" x2="104.4" y2="63.7"/>
						<line class="st4" x1="301.8" y1="144" x2="128.1" y2="49.5"/>
					</g>
					<g>
						<path class="st4" d="M329.4,136.5L155.7,42.1c14.7-2.1,28.2-1.2,40.6,2.4l173.7,94.5C357.6,135.3,344,134.5,329.4,136.5z"/>
						<line class="st4" x1="343.7" y1="135.4" x2="170" y2="41"/>
						<line class="st4" x1="357.2" y1="136.2" x2="183.5" y2="41.8"/>
					</g>
					<g>
						<path class="st4" d="M369.9,138.9L196.2,44.5c12.4,3.7,26.2,9.5,41.6,17.4l173.7,94.5C396.2,148.4,382.3,142.6,369.9,138.9z"
							/>
						<line class="st4" x1="382.8" y1="143.3" x2="209.1" y2="48.9"/>
						<line class="st4" x1="396.7" y1="149.1" x2="223" y2="54.7"/>
					</g>
				</g>
				<path class="st29" d="M227.9,275.2L54.2,180.8c2.1-39.9,12.1-72,30.3-96.2c18.1-24.2,41.8-38.3,71.2-42.5
					c14.7-2.1,28.2-1.2,40.6,2.4c12.4,3.7,26.2,9.5,41.6,17.4l173.7,94.5c-15.4-7.9-29.2-13.7-41.6-17.4
					c-12.4-3.6-25.9-4.5-40.6-2.4c-29.4,4.1-53.2,18.3-71.2,42.5C240,203.2,229.9,235.3,227.9,275.2z"/>
			</g>
			<g class="st0">
				<defs>
					<path id="SVGID_43_" class="st0" d="M411.5,156.4L237.8,61.9c14.7,6.6,25.9,11.1,33.6,13.7c7.7,2.5,15.9,3.2,24.6,2
						c26.7-3.8,42.1-24.3,46.2-61.7l173.7,94.5c-4.1,37.3-19.5,57.9-46.2,61.7c-8.7,1.2-16.9,0.6-24.6-2
						C437.4,167.5,426.2,163,411.5,156.4z"/>
				</defs>
				<clipPath id="SVGID_44_">
					<use xlink:href="#SVGID_43_"  style="overflow:visible;"/>
				</clipPath>
				<g class="st30">
					<g>
						<path class="st4" d="M411.5,156.4L237.8,61.9c14.7,6.6,25.9,11.1,33.6,13.7l173.7,94.5C437.4,167.5,426.2,163,411.5,156.4z"/>
						<line class="st4" x1="425" y1="162.3" x2="251.4" y2="67.8"/>
						<line class="st4" x1="436.2" y1="166.8" x2="262.5" y2="72.4"/>
					</g>
					<g>
						<path class="st4" d="M445.1,170.1L271.4,75.6c7.7,2.5,15.9,3.2,24.6,2L469.6,172C460.9,173.2,452.7,172.6,445.1,170.1z"/>
						<line class="st4" x1="452.9" y1="172" x2="279.2" y2="77.5"/>
						<line class="st4" x1="461.1" y1="172.6" x2="287.4" y2="78.1"/>
					</g>
					<g>
						<path class="st4" d="M469.6,172L296,77.5c26.7-3.8,42.1-24.3,46.2-61.7l173.7,94.5C511.8,147.7,496.4,168.3,469.6,172z"/>
						<line class="st4" x1="492.6" y1="162.6" x2="318.9" y2="68.2"/>
						<line class="st4" x1="508" y1="142.1" x2="334.3" y2="47.6"/>
					</g>
				</g>
				<path class="st31" d="M411.5,156.4L237.8,61.9c14.7,6.6,25.9,11.1,33.6,13.7c7.7,2.5,15.9,3.2,24.6,2
					c26.7-3.8,42.1-24.3,46.2-61.7l173.7,94.5c-4.1,37.3-19.5,57.9-46.2,61.7c-8.7,1.2-16.9,0.6-24.6-2
					C437.4,167.5,426.2,163,411.5,156.4z"/>
			</g>
			<g class="st0">
				<defs>
					<polygon id="SVGID_45_" class="st0" points="515.9,110.3 342.2,15.9 400.4,7.7 574,102.2 					"/>
				</defs>
				<clipPath id="SVGID_46_">
					<use xlink:href="#SVGID_45_"  style="overflow:visible;"/>
				</clipPath>
				<polygon class="st32" points="515.9,110.3 342.2,15.9 400.4,7.7 574,102.2 				"/>
			</g>
			<g class="st0">
				<defs>
					<path id="SVGID_47_" class="st0" d="M574,102.2c-2.1,40-12.2,72-30.3,96.2c-18.1,24.2-41.9,38.3-71.3,42.5
						c-14.7,2.1-28.2,1.3-40.6-2.4c-12.4-3.6-26.2-9.5-41.6-17.4l-173.7-94.5c15.4,8,29.2,13.8,41.6,17.4
						c12.3,3.7,25.9,4.5,40.6,2.4c29.4-4.1,53.2-18.3,71.3-42.5c18.1-24.2,28.2-56.3,30.3-96.2C452.5,36,521.9,73.8,574,102.2z"/>
				</defs>
				<clipPath id="SVGID_48_">
					<use xlink:href="#SVGID_47_"  style="overflow:visible;"/>
				</clipPath>
				<g class="st33">
					<g>
						<path class="st4" d="M574,102.2L400.4,7.7c-2.1,40-12.2,72-30.3,96.2l173.7,94.5C561.9,174.2,572,142.1,574,102.2z"/>
						<line class="st4" x1="569.3" y1="139.5" x2="395.6" y2="45"/>
						<line class="st4" x1="559.2" y1="171.6" x2="385.5" y2="77.1"/>
					</g>
					<g>
						<path class="st4" d="M543.8,198.4l-173.7-94.5c-18.1,24.2-41.9,38.3-71.3,42.5l173.7,94.5
							C501.9,236.7,525.7,222.6,543.8,198.4z"/>
						<line class="st4" x1="523.8" y1="219.2" x2="350.1" y2="124.7"/>
						<line class="st4" x1="500" y1="233.4" x2="326.3" y2="138.9"/>
					</g>
					<g>
						<path class="st4" d="M472.5,240.9l-173.7-94.5c-14.7,2.1-28.2,1.3-40.6-2.4l173.7,94.5C444.3,242.1,457.8,242.9,472.5,240.9z"
							/>
						<line class="st4" x1="458.2" y1="242" x2="284.5" y2="147.5"/>
						<line class="st4" x1="444.7" y1="241.2" x2="271" y2="146.7"/>
					</g>
					<g>
						<path class="st4" d="M431.9,238.4L258.2,144c-12.4-3.6-26.2-9.5-41.6-17.4L390.4,221C405.7,229,419.6,234.8,431.9,238.4z"/>
						<line class="st4" x1="419.1" y1="234.1" x2="245.4" y2="139.6"/>
						<line class="st4" x1="405.2" y1="228.3" x2="231.5" y2="133.8"/>
					</g>
				</g>
				<path class="st34" d="M574,102.2c-2.1,40-12.2,72-30.3,96.2c-18.1,24.2-41.9,38.3-71.3,42.5c-14.7,2.1-28.2,1.3-40.6-2.4
					c-12.4-3.6-26.2-9.5-41.6-17.4l-173.7-94.5c15.4,8,29.2,13.8,41.6,17.4c12.3,3.7,25.9,4.5,40.6,2.4
					c29.4-4.1,53.2-18.3,71.3-42.5c18.1-24.2,28.2-56.3,30.3-96.2C452.5,36,521.9,73.8,574,102.2z"/>
			</g>
			<g class="st0">
				<defs>
					<path id="SVGID_49_" class="st0" d="M390.4,221c-14.7-6.6-25.9-11.1-33.6-13.7c-7.7-2.5-15.9-3.2-24.6-1.9l-173.7-94.5
						c8.7-1.2,16.9-0.6,24.6,1.9c7.7,2.6,18.9,7.1,33.6,13.7L390.4,221z"/>
				</defs>
				<clipPath id="SVGID_50_">
					<use xlink:href="#SVGID_49_"  style="overflow:visible;"/>
				</clipPath>
				<g class="st35">
					<g>
						<path class="st4" d="M390.4,221l-173.7-94.5c-14.7-6.6-25.9-11.1-33.6-13.7l173.7,94.5C364.5,209.9,375.7,214.4,390.4,221z"/>
						<line class="st4" x1="376.8" y1="215.1" x2="203.1" y2="120.6"/>
						<line class="st4" x1="365.6" y1="210.6" x2="192" y2="116.1"/>
					</g>
					<g>
						<path class="st4" d="M356.8,207.3l-173.7-94.5c-7.7-2.5-15.9-3.2-24.6-1.9l173.7,94.5C340.9,204.2,349.1,204.8,356.8,207.3z"
							/>
						<line class="st4" x1="348.9" y1="205.4" x2="175.2" y2="111"/>
						<line class="st4" x1="340.7" y1="204.8" x2="167.1" y2="110.3"/>
					</g>
				</g>
				<path class="st36" d="M390.4,221c-14.7-6.6-25.9-11.1-33.6-13.7c-7.7-2.5-15.9-3.2-24.6-1.9l-173.7-94.5
					c8.7-1.2,16.9-0.6,24.6,1.9c7.7,2.6,18.9,7.1,33.6,13.7L390.4,221z"/>
			</g>
		</g>
	</g>
</g>
</svg>
